<?xml version="1.0" encoding="UTF-8" standalone="no"?>
<!DOCTYPE svg PUBLIC "-//W3C//DTD SVG 1.1//EN" "http://www.w3.org/Graphics/SVG/1.1/DTD/svg11.dtd">
<svg width="100%" height="100%" viewBox="0 0 236 304" version="1.1" xmlns="http://www.w3.org/2000/svg" xmlns:xlink="http://www.w3.org/1999/xlink" xml:space="preserve" xmlns:serif="http://www.serif.com/" style="fill-rule:evenodd;clip-rule:evenodd;stroke-linejoin:round;stroke-miterlimit:2;">
    <g transform="matrix(1,0,0,1,-224.03812,-185.485483)">
        <path d="M410.267,203.811L436.977,203.559C447.84,203.457 456.743,212.193 456.845,223.056L458.609,409.988L441.481,336.936L440.408,223.211C440.391,221.42 438.923,219.98 437.132,219.997L414.113,220.214L410.267,203.811ZM459.031,454.667L459.097,461.686C459.199,472.549 450.463,481.451 439.6,481.554L378.638,482.129L440.32,467.666C448.295,465.797 454.823,460.994 459.031,454.667ZM397.938,200.679L452.414,433.019C454.894,443.595 448.32,454.196 437.743,456.675L302.694,488.34C292.118,490.82 281.517,484.246 279.037,473.67L224.561,241.33C222.081,230.753 228.655,220.153 239.232,217.673L374.281,186.009C384.858,183.529 395.458,190.102 397.938,200.679Z" style="fill:rgb(255,206,0);"/>
    </g>
</svg>
