<?xml version="1.0" encoding="UTF-8" standalone="no"?>
<!DOCTYPE svg PUBLIC "-//W3C//DTD SVG 1.1//EN" "http://www.w3.org/Graphics/SVG/1.1/DTD/svg11.dtd">
<svg width="100%" height="100%" viewBox="0 0 1489 1658" version="1.1" xmlns="http://www.w3.org/2000/svg" xmlns:xlink="http://www.w3.org/1999/xlink" xml:space="preserve" xmlns:serif="http://www.serif.com/" style="fill-rule:evenodd;clip-rule:evenodd;stroke-linecap:round;stroke-miterlimit:1.5;">
    <g transform="matrix(1,0,0,1,-990.865003,-299.548018)">
        <g transform="matrix(1.28,0,0,1.08,93.373816,12.653656)">
            <g transform="matrix(0.78125,0,0,0.972054,0,-88.92083)">
                <rect x="914.624" y="381.077" width="1454.114" height="1546.603" style="fill:none;stroke:white;stroke-width:18.54px;"/>
            </g>
            <g transform="matrix(0.78125,0,0,0.925926,0,0)">
                <path d="M914.624,1115.853L2368.737,1115.853" style="fill:none;stroke:white;stroke-width:19.01px;"/>
            </g>
            <g transform="matrix(0.78125,0,0,0.925926,0,0)">
                <circle cx="1641.681" cy="1115.853" r="187.563" style="fill:none;stroke:white;stroke-width:19.01px;"/>
            </g>
            <g transform="matrix(0.800091,0,0,0.925926,-22.71593,0)">
                <rect x="1312.835" y="1611.688" width="637.153" height="315.991" style="fill:none;stroke:white;stroke-width:18.78px;"/>
            </g>
            <g transform="matrix(0.800091,0,0,0.925926,-22.71593,-1210.797175)">
                <rect x="1312.835" y="1611.688" width="637.153" height="315.991" style="fill:none;stroke:white;stroke-width:18.78px;"/>
            </g>
        </g>
    </g>
</svg>
