<?xml version="1.0" encoding="UTF-8" standalone="no"?><!DOCTYPE svg PUBLIC "-//W3C//DTD SVG 1.1//EN" "http://www.w3.org/Graphics/SVG/1.1/DTD/svg11.dtd"><svg width="100%" height="100%" viewBox="0 0 1345 1115" version="1.1" xmlns="http://www.w3.org/2000/svg" xmlns:xlink="http://www.w3.org/1999/xlink" xml:space="preserve" xmlns:serif="http://www.serif.com/" style="fill-rule:evenodd;clip-rule:evenodd;stroke-linejoin:round;stroke-miterlimit:2;"><g id="shirt"><path d="M1004.996,378.855l-675.342,-0l-71.272,148.602l-34.632,34.585c-79.254,-57.288 -148.066,-125.855 -206.083,-206.083l36.59,-30.977l385.01,-90.837c31.042,-31.042 28.188,-176.946 61.109,-175.811c28.022,-35.822 118.538,-45.373 172.042,-45.373c53.504,0 144.02,9.551 172.042,45.373c32.921,-1.135 -4.952,149.157 26.089,180.199l420.168,86.567l36.451,30.859c-58.017,80.228 -126.829,148.796 -206.083,206.083l-34.663,-34.615l-81.424,-148.571Z"/><path d="M672.417,1101.708c-132.783,0 -275,-10.92 -357.333,-22.502l0,-608.373l-56.695,56.62c-79.254,-57.288 -146.115,-122.272 -204.132,-202.5l260.827,-220.786c31.042,-31.042 152.371,-46.968 185.292,-45.833l344.083,0c32.921,-1.135 154.25,14.791 185.292,45.833l260.966,220.824c-58.017,80.228 -125.004,145.251 -204.258,202.539l-56.708,-56.696l0,608.373c-82.333,11.582 -224.55,22.502 -357.333,22.502Z" style="fill:#fff;"/></g></svg>